<?xml version="1.0" encoding="UTF-8"?>
<svg id="_Слой_2" data-name="Слой 2" xmlns="http://www.w3.org/2000/svg" viewBox="0 0 233.25 246.22">
  <defs>
    <style>
      .cls-1 {
        fill: #e42336;
        stroke-width: 0px;
      }
    </style>
  </defs>
  <g id="_Слой_18" data-name="Слой 18">
    <path class="cls-1" d="M0,44.89l1.19-2.43c1.61-.35,3.26-.61,4.78-1.21,23.01-9.1,46-18.26,69-27.39,1.68-.67,3.41-1.19,6.68-2.31-7.43,8.31-13.31,15.69-20.05,22.2-5.23,5.06-6.18,9.85-3.93,16.7,4.41,13.47,8.11,27.16,12.06,41.01.7,2.46,3.12,4.03,5.66,3.69,28.61-3.76,56.49-7.37,84.33-11.3,1.8-.25,4.04-3.01,4.67-5.04,4.31-13.74,7.97-27.68,12.41-41.37,1.96-6.04,1.28-10.28-3.29-15.09-6.78-7.15-12.48-15.31-18.08-22.34,25.4,10.22,51.87,20.88,77.82,31.32-4.89,17.62-9.49,34.17-14.09,50.73-14.59,52.56-24.19,106.83-38.64,159.43-1.24,4.53-8.27,4.33-13.06,4.59-44.23,2.36-84.23-23.29-128.44-20.69-7.92.46-8.48.12-8.69-8.12-.71-27.7-5.42-27.11-6.2-54.81-.68-24.11.58-48.34-8.76-71.59-5.27-13.11-8.5-27.02-12.74-40.55-.59-1.89-1.78-3.6-2.63-5.41ZM98.62,152.58c-17.53-5.89-34.44-11.57-51.93-17.44,6.15,26.4,27.88,33.08,51.93,17.44ZM120.65,151.94c27.13,14.33,46.44,3.82,50.66-21.09-16.8,6.99-33.2,13.82-50.66,21.09Z"/>
  </g>
</svg>