<?xml version="1.0" encoding="UTF-8"?>
<svg id="_Слой_2" data-name="Слой 2" xmlns="http://www.w3.org/2000/svg" viewBox="0 0 1856.67 852.36">
  <defs>
    <style>
      .cls-1 {
        fill: #1d1d1f;
      }

      .cls-1, .cls-2 {
        stroke-width: 0px;
      }

      .cls-2 {
        fill: #e42336;
      }
    </style>
  </defs>
  <g id="_Слой_1-2" data-name="Слой 1">
    <g>
      <path class="cls-2" d="M0,761.39c16.51-56.82,33.02-113.63,49.53-170.45.8-2.74,1.57-5.49,2.36-8.23,2.71,2.65,5.49,5.22,8.11,7.95,21.78,22.62,45.38,43.04,71.86,60.04-11.51,41.63-22.96,83.28-34.77,124.82-.51,1.81-4.56,4.08-6.61,3.77-30.2-4.46-60.33-9.31-90.49-14.07,0-1.28,0-2.55,0-3.83Z"/>
      <path class="cls-1" d="M1751.28,92.02c-.4,11.14-.8,22.28-1.21,33.42-2.95,79.66,5,158.61,15.78,237.36,2.08,15.16,4.59,30.26,6.44,45.45.68,5.55,2.79,8.28,8.4,9.71,10.71,2.72,24.37,3.47,30.84,10.52,6.16,6.71,4.61,20.41,6.61,31.01,12.45,66.03,24.93,132.05,37.42,198.06,2.17,11.46,2.09,11.63-9.35,9.29-58.77-12.05-117.65-23.37-177.64-27.43-6.97-.47-7.3-4.88-8.13-9.53-5.82-32.33-11.88-64.61-17.15-97.03-1.44-8.84-3.99-12.56-13.93-13.33-81.27-6.31-160.34,6.14-238.48,26.81-26.81,7.09-53.42,15.01-79.92,23.19-7.89,2.44-11.16,2.14-12.2-7.23-8.39-75.41-17.64-150.72-25.79-226.15-6.65-61.56-9.34-123.36-7.63-185.3,1.2-43.44,5.93-86.47,14.76-129.07,1.24-5.96,3.55-8.62,9.49-9.71,54.19-9.92,108.73-14.13,163.8-11.08,4.98.28,7.79.94,6.34,7.07-19.08,80.95-11.7,161.58,3.06,242.13,2.41,13.17,4.77,26.36,6.63,39.62.88,6.23,3.33,8.09,9.82,8.36,23.56.99,47.13,2.37,70.57,4.78,8.43.87,9.52-.77,8.39-8.61-6.45-44.8-13.55-89.56-18.21-134.55-4.89-47.19-.82-94.28,7.2-141,.77-4.5.85-8.97,7.79-7.64,41.29,7.94,82.62,15.67,123.94,23.47,24.11,19.14,48.22,38.28,72.34,57.43Z"/>
      <path class="cls-1" d="M469.02,795.25c-1.71-15.81-3.4-31.62-5.2-47.43-.15-1.29-1.06-2.5-1.62-3.75-.46,1.15-1.01,2.28-1.38,3.46-4.49,14.25-8.96,28.51-13.44,42.76-1.56-.26-3.18-.33-4.67-.8-37.3-11.58-74.59-23.21-111.88-34.83,9.19-24.07,18.69-48.02,27.46-72.24,6.94-19.16,13.19-38.58,19.27-58.03,1.36-4.34,1.93-9.6.85-13.93-18.68-75.01-28.71-151.43-37.78-228.02-1.28-10.76-2.67-21.51-3.93-32.27-.82-7.01,1.36-10.22,9.43-10.15,31.11.27,61.73-4.06,91.66-12.5,7.59-2.14,9.8-.69,10.32,7.28,3.07,46.74,6.61,93.46,10.1,140.17.28,3.74,1.41,7.41,2.14,11.11.64-3.63,1.27-7.27,1.92-10.9,9.31-51.72,18.68-103.44,27.87-155.19,1.31-7.37,5.03-11.22,12.14-14.08,41.43-16.64,82.61-33.91,123.91-50.89,2.83-1.16,5.93-1.68,8.9-2.49-.41,3-.54,6.07-1.26,8.99-11.51,46.61-23.15,93.2-34.56,139.84-.6,2.46.51,5.34.82,8.02,1.72-2.15,4.06-4.05,5.07-6.5,24.63-59.48,51.77-117.63,90.24-169.72,3.54-4.79,8.9-9.31,14.39-11.43,52.39-20.17,104.97-39.81,157.54-59.51,2.77-1.04,5.87-1.19,8.82-1.75-1.05,3.14-1.49,6.67-3.22,9.37-38.99,60.66-75.33,122.85-103.92,189.14-19.54,45.32-37.24,91.45-55.3,137.39-1.66,4.22-1.54,10.46.35,14.57,31.26,67.97,67.49,132.95,117.35,189.38,14.13,15.99,29.18,31.16,43.87,46.66,7.77,8.2,7.34,11.67-3.24,15.49-47.33,17.05-94.76,33.83-142.13,50.71-22.65.04-45.31.08-67.97.12-24.97-21.25-43.84-47.42-60.66-75.24-2.46-4.08-4.71-8.28-7.17-12.36-1.08-1.8-2.43-3.45-3.66-5.16-.22,2.36-.96,4.81-.59,7.07,3.85,23.51,7.88,46.99,11.84,70.49.73,4.35,1.36,8.72,2.03,13.09-5.39-.12-10.85.25-16.17-.43-39.53-5.06-79.03-10.34-118.54-15.54Z"/>
      <path class="cls-1" d="M131.86,650.7c-26.48-16.99-50.08-37.42-71.86-60.04-2.62-2.73-5.4-5.3-8.11-7.95,8.42-43.44,17.4-86.78,25.09-130.35,8.14-46.09,15.22-92.37,22.33-138.63,1-6.53,2.78-8.7,9.51-7.65,32.13,5.03,64.3,9.84,96.5,14.37,5.8.82,8.07,3.19,8.82,8.9,6.29,48.31,12.89,96.58,19.27,144.87,10.75,81.44,21.41,162.89,32.07,244.35.37,2.82.37,5.7.55,8.55-31.76-16.6-63.51-33.21-95.27-49.81-3.25-34.55-6.61-69.08-9.7-103.65-1.56-17.44-2.62-34.93-3.97-52.39-.11-1.43-.68-2.83-1.03-4.24-.64,1.33-1.67,2.6-1.87,4-2.98,20.48-5.37,41.06-8.89,61.45-3.95,22.83-8.91,45.49-13.42,68.23Z"/>
      <path class="cls-2" d="M1048.68,214.89c-.22,6.67.04,13.4-.79,20-.93,7.34.32,9.3,7.79,5.86,12.34-5.68,25.1-10.46,37.69-15.61,3.13.5,6.28.89,9.37,1.52,38.77,8,77.53,16.03,116.29,24.05,1.41,26.33,3,52.66,3.98,79.01.11,2.84-2.58,7.28-5.14,8.49-37.37,17.61-74.95,34.79-112.49,52.04-.51.23-1.23,0-1.85-.02-16.93-7.98-33.72-16.28-50.82-23.89-53.97-24.02-108.06-47.78-162.1-71.64,3.3-28.59,6.45-57.19,10.01-85.75,1.01-8.11,3.23-16.07,4.89-24.09,2.18.39,4.38.72,6.55,1.18,45.54,9.61,91.08,19.24,136.62,28.86Z"/>
      <path class="cls-2" d="M884.95,430.15c.69-27.06,1.38-54.12,2.07-81.18,54.74,24.14,109.48,48.27,164.22,72.4.97,12.29,2.09,24.57,2.84,36.88.39,6.5,2.35,7.52,8.12,4.19,11.7-6.75,23.78-12.85,35.71-19.22,11.88,5.42,23.79,10.76,35.63,16.26,38.41,17.84,76.8,35.73,115.2,53.61,3.08,23.06,6.16,46.11,9.23,69.16-2.13-.65-4.33-1.12-6.38-1.96-46.55-19.01-93.08-38.06-139.61-57.12-75.68-31-151.35-62.01-227.02-93.02Z"/>
      <path class="cls-1" d="M884.95,430.15c75.67,31.01,151.34,62.02,227.02,93.02,46.53,19.06,93.06,38.1,139.61,57.12,2.05.84,4.25,1.31,6.38,1.96-1.2,2.11-1.92,5.45-3.68,6.14-20.85,8.16-41.85,15.93-62.82,23.8-17.32-7.17-34.64-14.34-51.95-21.53-84.63-35.17-169.26-70.35-253.89-105.53-.23-18.33-.45-36.66-.68-54.98Z"/>
      <path class="cls-2" d="M885.64,485.13c84.63,35.18,169.26,70.36,253.89,105.53,17.31,7.19,34.63,14.35,51.95,21.53-15.83,7.36-31.67,14.72-47.5,22.09-19.86,9.24-39.73,18.48-59.59,27.73-1.91-1.67-3.7-3.52-5.76-4.98-48.18-34.34-96.36-68.69-144.63-102.91-15.78-11.19-31.83-21.99-47.76-32.97-.2-12-.4-24-.6-36.01Z"/>
      <path class="cls-2" d="M1210.84,145.37c-29.61,11.29-59.22,22.57-88.83,33.86-12.99-2.96-25.96-6.04-38.98-8.86-50.26-10.89-100.54-21.69-150.81-32.52,30.81-12.81,61.61-25.65,92.44-38.41,6.44-2.66,13-5.03,19.51-7.54,3.22,1.28,6.38,2.76,9.67,3.81,52.32,16.59,104.66,33.12,157,49.66Z"/>
      <path class="cls-1" d="M886.24,521.14c15.93,10.98,31.98,21.79,47.76,32.97,48.27,34.22,96.45,68.57,144.63,102.91,2.06,1.47,3.84,3.31,5.76,4.98-17.29,8.58-34.57,17.16-51.86,25.74-2.64-1.79-5.32-3.51-7.91-5.37-45.28-32.52-90.55-65.06-135.82-97.59-.85-21.21-1.7-42.43-2.55-63.64Z"/>
      <path class="cls-1" d="M1051.24,421.38c-54.74-24.13-109.48-48.27-164.22-72.4,1.2-18.1,2.39-36.19,3.59-54.29,54.04,23.86,108.13,47.62,162.1,71.64,17.1,7.61,33.89,15.91,50.82,23.89-13.47,7.75-26.98,15.45-40.4,23.3-4.09,2.4-7.93,5.23-11.88,7.86Z"/>
      <path class="cls-2" d="M170.75,677.31c31.76,16.6,63.51,33.21,95.27,49.81,4.32,29.17,8.76,58.33,12.86,87.53,1.05,7.51-1.56,10.6-10.24,8.39-25.58-6.49-51.44-11.91-77.07-18.25-3.08-.76-7.42-4.4-7.73-7.11-4.7-40.08-8.82-80.24-13.08-120.37Z"/>
      <path class="cls-1" d="M932.22,137.85c50.27,10.83,100.55,21.64,150.81,32.52,13.02,2.82,25.98,5.9,38.98,8.86-21.16,9.18-42.4,18.21-63.42,27.69-3.74,1.68-6.62,5.26-9.9,7.96-45.54-9.62-91.08-19.24-136.62-28.86-2.17-.46-4.36-.79-6.55-1.18,2.1-11.82,3.43-23.85,6.53-35.4,2.57-9.58,12.8-8.76,20.17-11.6Z"/>
      <path class="cls-2" d="M330.83,754.68c37.29,11.62,74.58,23.24,111.88,34.83,1.5.46,3.11.54,4.67.8-8.53,18.08-16.89,36.23-25.82,54.11-.95,1.9-5.33,3.38-7.81,3.01-37.17-5.55-74.29-11.48-111.43-17.21-5.16-.8-6.69-3.44-4.52-7.92,10.94-22.57,22.01-45.08,33.03-67.61Z"/>
      <path class="cls-2" d="M888.79,584.78c45.27,32.53,90.54,65.07,135.82,97.59,2.59,1.86,5.27,3.58,7.91,5.37-17.83,8.65-35.66,17.31-53.5,25.96-28.35-12.24-56.69-24.47-85.04-36.71-1-10.4-2.38-20.78-2.9-31.2-1.02-20.32-1.56-40.67-2.29-61.01Z"/>
      <path class="cls-1" d="M1210.84,145.37c-52.33-16.54-104.67-33.07-157-49.66-3.29-1.04-6.45-2.53-9.67-3.81,24.98-9.94,49.97-19.88,74.95-29.82,38,12.37,76,24.75,114,37.12-.95,11.91-1.33,23.92-3.25,35.67-.5,3.04-5.59,5.78-9.09,7.73-2.92,1.63-6.6,1.89-9.94,2.76Z"/>
      <path class="cls-1" d="M1248.73,513.09c-38.4-17.87-76.78-35.77-115.2-53.61-11.84-5.5-23.75-10.84-35.63-16.26,4.85-3.13,9.46-6.7,14.58-9.28,14.27-7.18,28.75-13.95,43.15-20.88,28.56,13.18,57.11,26.36,85.66,39.54,2.48,20.16,4.95,40.32,7.43,60.49Z"/>
      <path class="cls-2" d="M469.02,795.25c39.51,5.21,79.01,10.48,118.54,15.54,5.32.68,10.77.31,16.17.43,1.16,4.62,2.5,9.2,3.44,13.86,3.69,18.18,7.31,16.93-12.83,18.88-37.07,3.6-74.31,5.52-111.46,8.31-7.16.54-10.15-1.73-10.44-9.41-.59-15.89-2.22-31.75-3.42-47.62Z"/>
      <path class="cls-2" d="M1233.11,99.2c-38-12.37-76-24.75-114-37.12,40.7-13.29,81.39-26.61,122.18-39.61.95-.3,4.62,3.29,4.4,4.63-3.96,24.07-8.32,48.08-12.59,72.1Z"/>
      <path class="cls-1" d="M1219.03,250.7c-38.76-8.02-77.52-16.06-116.29-24.05-3.09-.64-6.24-1.02-9.37-1.52,9.71-4.58,19.24-9.58,29.16-13.63,18.53-7.57,37.29-14.59,55.96-21.84,13.52,3.01,27.03,6.01,40.54,9.02,0,17.34,0,34.68-.01,52.03Z"/>
      <path class="cls-2" d="M1241.3,452.61c-28.55-13.18-57.1-26.36-85.66-39.54,8-4.3,15.8-9.07,24.07-12.81,15.93-7.21,32.06-14,48.3-20.47,1.88-.75,7.16,1.47,7.28,2.66,2.32,23.35,4.11,46.76,6.01,70.15Z"/>
      <path class="cls-1" d="M893.99,677c28.35,12.24,56.69,24.47,85.04,36.71-19.83,9.19-39.45,18.88-59.58,27.38-11.96,5.05-20.61-1-21.71-13.86-1.43-16.73-2.52-33.48-3.75-50.23Z"/>
      <path class="cls-2" d="M1751.28,92.02c-24.11-19.14-48.23-38.29-72.34-57.43,23.81,5.23,47.65,10.33,71.37,15.93,1.98.47,4.62,4.4,4.48,6.56-.74,11.67-2.26,23.3-3.52,34.94Z"/>
      <path class="cls-2" d="M1219.04,198.68c-13.51-3.01-27.02-6.01-40.54-9.02,12.28-4.76,24.58-9.5,36.86-14.29,4.8-1.87,5.4.72,5.08,4.55-.51,6.25-.94,12.5-1.4,18.76Z"/>
      <path class="cls-2" d="M661.93,813.34c22.66-.04,45.33-.08,67.97-.12-12.77,3.62-25.93,6.25-38.19,11.13-14.08,5.61-22.73.41-29.79-11.01Z"/>
    </g>
  </g>
</svg>