<svg width="400" height="439" viewBox="0 0 400 439" fill="none" xmlns="http://www.w3.org/2000/svg">
<g clip-path="url(#clip0_4006_2)">
<path d="M307.77 4.21654C304.239 7.81269 300.762 11.4649 297.147 14.9748C296.067 16.0242 295.783 16.9507 296.123 18.3921C297.819 25.5952 299.415 32.8199 301.055 40.0359C301.158 40.4948 301.341 40.9344 301.511 41.4493C307.101 41.0658 312.607 40.6995 318.114 40.3073C325.63 39.7708 333.141 39.1632 340.664 38.7086C342.353 38.6052 343.231 38.0342 343.782 36.4138C346.142 29.4736 348.576 22.5593 351.08 15.6708C351.504 14.5051 351.28 13.7553 350.573 12.8719C347.633 9.19599 344.733 5.48995 341.854 1.76667C341.46 1.25817 341.268 0.594531 340.982 0.00415039C341.335 0.215309 341.671 0.460942 342.041 0.63547C352.729 5.69465 363.418 10.7431 374.106 15.8001C374.769 16.1147 375.412 16.4723 375.935 16.7438C373.398 24.143 370.926 31.3094 368.486 38.4845C360.953 60.6238 353.434 82.7674 345.908 104.907C344.556 108.882 343.19 112.853 341.809 116.887C342.217 117.061 342.454 117.231 342.706 117.259C345.241 117.54 347.777 117.8 350.316 118.057C357.863 118.819 365.409 119.586 372.957 120.323C374.009 120.427 374.579 120.83 374.709 121.944C374.851 123.172 375.156 124.378 375.382 125.598C377.228 135.602 379.064 145.608 380.916 155.613C383.901 171.743 386.9 187.868 389.882 203.998C392.589 218.63 395.27 233.267 397.992 247.897C398.597 251.142 399.326 254.366 399.998 257.598V265.919C399.89 266.003 399.763 266.074 399.677 266.175C387.599 280.545 375.513 294.904 363.487 309.314C362.833 310.099 362.411 311.271 362.319 312.303C361.944 316.438 361.74 320.59 361.475 324.735C360.223 344.371 358.971 364.009 357.725 383.644C356.873 397.059 355.991 410.472 355.225 423.891C355.074 426.524 354.101 428.66 352.554 430.685C350.459 433.426 348.447 436.229 346.398 439.006H264.957C265.125 438.347 265.229 437.666 265.467 437.035C267.862 430.687 270.253 424.339 272.714 418.018C273.194 416.785 273.218 415.712 272.816 414.445C262.939 383.233 253.104 352.007 243.255 320.786C243.081 320.234 242.833 319.704 242.493 318.84C242.097 319.732 241.841 320.271 241.615 320.824C234.435 338.454 227.246 356.079 220.09 373.717C216.083 383.59 212.16 393.497 208.124 403.357C207.586 404.672 206.835 406.066 205.796 406.979C201.326 410.911 196.711 414.68 192.149 418.509C191.03 416.608 189.903 414.714 188.797 412.808C187.495 410.562 187.936 408.416 189.903 406.994C189.903 406.055 189.791 405.156 189.922 404.294C190.622 399.655 191.424 395.032 192.1 390.39C192.496 387.669 191.865 385.09 190.542 382.698C190.008 381.735 189.359 380.834 188.769 379.904C185.84 375.28 183.273 370.496 181.561 365.252C180.382 361.645 178.914 358.126 177.44 354.627C174.925 348.65 172.306 342.718 169.73 336.767C170.184 335.371 170.639 333.974 171.093 332.578C174.49 331.042 177.92 329.57 181.277 327.948C183.869 326.694 183.788 326.547 183.218 323.768C181.86 317.125 181.016 310.417 180.857 303.63C181.165 302.874 181.513 302.131 181.776 301.359C185.393 290.754 189.014 280.149 192.595 269.53C193.255 267.572 193.922 265.587 194.269 263.56C196.369 251.282 198.392 238.992 200.408 226.702C201.191 221.927 201.895 217.139 202.633 212.356C203.394 209.979 205.2 208.57 207.158 207.202C210.652 204.761 214.056 202.188 217.467 199.626C218.781 198.639 218.846 197.851 217.873 196.472C215.689 193.38 213.475 190.312 211.31 187.209C210.93 186.664 210.73 185.991 210.448 185.377C211.62 183.117 212.808 180.863 213.951 178.586C214.146 178.194 214.153 177.707 214.245 177.263H214.235C214.379 176.989 214.521 176.718 214.665 176.446L214.659 176.457C214.809 176.179 214.96 175.899 215.108 175.621L215.091 175.651C215.229 175.442 215.369 175.233 215.506 175.024C216.358 173.535 217.299 172.087 218.045 170.547C219.476 167.595 220.8 164.587 222.166 161.603C222.558 161.06 223.027 160.555 223.326 159.965C231.371 144.109 239.401 128.244 247.423 112.377C248.23 110.778 248.968 109.145 249.816 107.361C258.788 108.279 267.772 109.199 276.966 110.14C277.085 108.44 277.239 106.88 277.295 105.314C277.622 96.107 277.93 86.9 278.238 77.691C278.526 69.1067 278.843 60.5225 279.06 51.9361C279.101 50.2986 278.911 48.6093 278.535 47.0149C276.138 36.918 273.659 26.8406 271.21 16.7567C271.18 16.6296 271.206 16.4874 271.206 16.1728C271.611 15.9897 272.071 15.7268 272.564 15.5631C283.766 11.8118 294.97 8.07125 306.178 4.33936C306.628 4.19068 307.112 4.1519 307.581 4.0614C307.646 4.11527 307.71 4.16914 307.773 4.22516L307.77 4.21654ZM311.999 68.2966C311.986 68.1393 311.971 67.982 311.958 67.8269C304.495 64.8189 297.033 61.8132 289.285 58.691C289.887 61.9381 290.894 64.5453 292.635 66.84C294.1 68.7728 296.011 70.1453 298.363 70.6969C303.252 71.8453 307.712 70.4663 312.001 68.2966H311.999ZM322.497 68.0876C322.452 68.2987 322.406 68.5099 322.359 68.7211C324.59 69.5635 326.781 70.5568 329.07 71.2011C330.701 71.66 332.464 71.8109 334.168 71.8173C338.209 71.8281 340.632 69.0895 342.923 66.2712C344.358 64.5065 345.191 62.4574 345.503 60.0032C337.692 62.7483 330.095 65.4179 322.497 68.0876Z" fill="#E52235"/>
<path d="M210.448 185.369C210.732 185.983 210.93 186.655 211.311 187.2C213.475 190.305 215.689 193.373 217.873 196.463C218.848 197.842 218.781 198.631 217.467 199.618C214.058 202.18 210.652 204.75 207.158 207.194C205.2 208.562 203.397 209.971 202.633 212.347C202.226 213.143 201.789 213.923 201.415 214.733C200.195 217.372 199.136 220.096 197.763 222.653C194.654 228.449 191.379 234.155 188.218 239.925C187.73 240.815 187.454 241.834 187.155 242.815C186.654 244.461 186.331 246.172 185.718 247.775C184.827 250.1 183.702 252.334 182.755 254.639C181.726 257.145 180.93 259.712 180.892 262.47C180.765 271.478 180.537 280.487 180.485 289.496C180.459 294.204 180.722 298.914 180.853 303.622C181.01 310.409 181.853 317.116 183.213 323.759C183.781 326.541 183.863 326.685 181.272 327.939C177.916 329.562 174.486 331.033 171.088 332.57C170 332.755 168.913 332.938 167.592 333.162C168.422 334.561 169.074 335.66 169.726 336.756C172.302 342.708 174.923 348.639 177.436 354.616C178.91 358.118 180.377 361.636 181.557 365.241C183.271 370.486 185.838 375.267 188.765 379.893C189.354 380.826 190.006 381.724 190.538 382.687C191.861 385.079 192.492 387.658 192.096 390.38C191.42 395.021 190.617 399.645 189.918 404.284C189.789 405.146 189.899 406.044 189.899 406.984C187.932 408.406 187.491 410.552 188.793 412.797C189.899 414.704 191.026 416.598 192.145 418.498C192.877 420.123 193.675 421.719 194.308 423.383C194.544 424.003 194.4 424.77 194.422 425.471C194.437 425.981 194.366 426.505 194.458 426.998C194.598 427.74 194.93 428.448 195.039 429.19C195.519 432.454 195.947 435.727 196.395 438.998H146.948C146.89 438.039 146.965 437.048 146.75 436.126C145.519 430.879 144.261 425.639 142.929 420.416C141.975 416.675 140.9 412.967 139.878 409.244C139.619 407.613 139.434 405.967 139.088 404.355C138.363 400.974 137.44 397.632 136.831 394.232C136.588 392.879 136.106 391.83 135.038 391.132C132.499 389.475 129.861 387.966 127.324 386.303C124.135 384.213 121.321 385.527 118.717 387.339C117.459 388.216 116.452 389.593 115.628 390.927C114.321 393.039 113.347 395.355 112.086 397.497C109.493 401.899 106.829 406.262 104.142 410.608C102.287 413.605 100.303 416.522 98.4589 419.526C97.964 420.332 97.766 421.321 97.4368 422.23C96.7827 424.038 96.277 425.919 95.4486 427.643C94.1941 430.258 92.6621 432.743 91.3582 435.335C90.7772 436.488 90.4609 437.774 90.0241 438.998H40.1621C40.4095 438.358 40.5774 437.671 40.9195 437.087C45.2853 429.616 49.7157 422.181 54.0407 414.687C55.3877 412.353 56.4377 409.847 57.6987 407.46C58.1419 406.622 58.1441 405.973 57.6427 405.163C56.5496 403.398 55.6309 401.522 54.4861 399.793C53.8944 398.901 53.9568 398.143 54.3204 397.285C54.5356 396.777 54.7422 396.258 55.0112 395.777C60.4916 386.042 65.0016 375.868 69.1997 365.517C71.7172 359.314 75.0502 353.442 77.9723 347.4C78.6027 346.097 79.84 344.981 79.3537 343.246C79.2827 342.99 79.8378 342.447 80.2122 342.201C80.8448 341.787 81.5441 341.458 82.2499 341.178C84.6663 340.221 85.7959 338.165 86.6158 335.925C86.7814 335.472 86.407 334.621 86.0176 334.201C82.4715 330.359 77.9529 329.008 72.8705 329.329C70.2497 329.495 67.6397 329.831 65.0253 330.098C64.6143 330.141 64.1775 330.353 63.8031 330.266C62.9725 330.075 61.9096 329.96 61.4513 329.4C61.1135 328.987 61.3932 327.819 61.7202 327.146C63.7278 323.044 65.9592 319.045 67.8462 314.891C68.8683 312.641 69.4686 310.176 70.0582 307.759C71.3643 302.4 72.5434 297.009 73.7764 291.631C73.8388 291.362 73.8797 291.069 74.0174 290.838C78.2068 283.837 80.2251 276.128 81.1762 268.128C82.0218 261.024 81.9271 253.911 81.0815 246.777C80.3155 240.328 78.8566 234.084 76.4445 228.096C75.3428 225.362 73.9076 222.66 72.1282 220.32C63.9774 209.594 54.9681 199.635 44.8464 190.719C43.4026 189.448 43.4392 189.077 44.8421 187.817C47.2563 185.651 49.649 183.46 52.13 181.208C45.4144 173.206 40.0932 164.363 34.9936 155.382C32.1921 150.45 29.5799 145.408 26.8601 140.429C26.4663 139.707 26.1027 138.798 25.4636 138.414C23.1591 137.035 22.5566 134.65 21.5496 132.465C21.13 131.556 20.5254 130.718 19.9186 129.914C18.4231 127.934 16.8847 125.986 15.3483 124.038C14.6662 123.172 14.0336 122.241 13.2289 121.502C10.791 119.266 8.27559 117.113 5.80326 114.913C5.5515 114.689 5.34279 114.392 5.18141 114.092C3.72899 111.414 2.28088 108.733 0.849976 106.044C-0.286137 103.909 -0.372207 101.813 1.09312 99.9984C0.794031 98.7703 0.411023 97.7274 0.309892 96.6608C0.0667462 94.1291 0.615437 93.7649 3.08132 94.825C2.58857 91.6232 5.64833 91.0113 7.15239 88.7941C5.7925 87.2686 4.41754 85.4307 2.73704 83.9353C1.35994 82.7093 0.914528 81.2183 0.649865 79.5915C0.41963 78.1802 1.64181 77.1739 3.02107 77.6674C3.84518 77.9626 4.65423 78.4689 5.3019 79.0636C8.9706 82.4314 12.7985 85.6655 15.0621 90.2744C15.273 90.7032 15.7636 91.0738 16.2112 91.2935C18.9288 92.6294 21.8422 93.2349 24.8482 93.2306C27.2065 93.2263 28.5513 94.2907 29.2851 96.4906C30.0941 98.9168 31.3185 101.222 31.9339 103.687C32.4201 105.633 32.2566 107.738 32.4029 110.147C34.3847 111.825 35.637 114.665 36.4675 117.41C38.2879 123.426 41.395 128.653 44.9755 133.68C47.5834 137.341 50.2558 140.954 52.9025 144.587C56.9413 150.129 60.9865 155.662 65.0167 161.211C66.6434 163.451 68.2206 165.727 69.8581 167.959C70.1249 168.321 70.5746 168.776 70.9533 168.791C72.4402 168.845 73.2083 169.831 74.2024 170.728C75.614 172.001 77.2816 173.027 78.9427 173.975C81.5183 175.447 84.18 176.774 86.8137 178.144C87.3581 178.426 87.9369 178.659 88.5179 178.857C90.2177 179.439 91.98 179.818 92.1887 182.193C92.2447 182.844 93.1441 183.529 93.8004 183.996C95.8854 185.483 97.7811 187.45 100.755 186.905C101.237 186.817 101.818 187.155 102.33 187.353C105.676 188.648 109.022 189.939 112.346 191.283C112.826 191.477 113.527 191.923 113.558 192.298C113.775 194.953 116.019 195.19 117.747 195.563C119.324 195.903 120.613 196.321 121.487 197.754C121.629 197.724 121.771 197.694 121.913 197.663C122.044 194.647 122.3 191.63 122.244 188.618C122.225 187.526 121.581 186.377 121.011 185.373C120.054 183.69 118.827 182.16 117.895 180.469C115.825 176.716 114.84 172.792 116.428 168.552C116.607 168.073 116.555 167.461 116.465 166.936C116.006 164.283 115.905 161.467 114.887 159.041C114.009 156.951 114.883 155.639 115.468 153.947C116.073 152.202 116.176 150.289 116.667 148.496C116.981 147.35 117.599 146.287 118.162 144.997C118.874 145.443 119.253 145.682 119.854 146.057C120.361 145.201 121.08 144.4 121.323 143.473C121.616 142.361 121.564 141.142 121.551 139.972C121.536 138.539 122.016 137.423 123.505 136.505C124.503 138.134 124.478 140.739 127.264 140.87C126.851 138.638 129.353 138.061 129.921 136.296C129.967 136.154 130.709 136.025 130.812 136.15C131.137 136.546 131.462 137.05 131.518 137.544C131.632 138.554 131.337 139.672 132.549 140.25C134.107 138.683 134.085 138.711 135.942 140.129C136.398 140.478 137.037 140.633 137.618 140.763C138.494 140.959 139.393 141.056 140.637 141.25C141.274 140.539 142.176 139.532 143.217 138.367C145.926 140.547 148.887 142.034 151.495 144.283C154.128 146.554 153.625 148.785 153.156 151.282C152.915 152.564 153.037 153.361 154.219 153.995C155.787 154.837 156.431 156.207 156.231 157.987C156.177 158.466 156.136 158.978 156.25 159.435C157.352 163.848 157.395 168.33 157.203 172.833C157.186 173.244 157.197 173.682 157.322 174.068C158.335 177.203 157.78 180.318 157.343 183.46C157.197 184.507 157.492 185.61 157.507 186.69C157.52 187.687 157.718 188.818 157.337 189.665C155.607 193.509 153.698 197.271 151.858 201.063C151.712 201.365 151.583 201.678 151.45 201.975C153.205 203.138 154.955 203.434 157.003 203.016C160.104 202.382 163.269 202.072 166.74 201.578C166.6 201.731 166.815 201.604 166.858 201.432C167.658 198.204 170.21 196.644 172.859 195.265C174.178 194.578 175.052 193.701 175.502 192.287C176.724 188.435 178.378 184.77 180.853 181.557C182.807 179.021 184.547 176.242 187.607 174.779C188.016 174.582 188.281 174.093 188.627 173.759C190.073 172.365 191.424 170.853 192.995 169.616C195.949 167.289 197.617 164.253 198.785 160.739C200.029 157.003 201.464 153.309 203.123 149.741C206.592 142.273 210.248 134.891 213.863 127.492C214.895 125.378 216.152 123.372 217.133 121.237C219.623 115.825 220.763 110.072 221.273 104.163C221.432 102.306 221.665 100.438 222.065 98.6194C222.816 95.187 222.917 91.6124 224.471 88.3481C225.342 86.5166 226.517 85.004 227.791 83.4311C229.945 80.7701 231.563 77.6674 233.325 74.7025C234.597 72.5629 235.655 70.2919 236.974 68.1846C237.697 67.0319 238.7 66.0235 239.713 65.1013C240.062 64.7846 240.918 64.7264 241.377 64.9268C241.702 65.069 241.988 65.9158 241.874 66.3316C241.362 68.1846 240.733 70.0075 240.077 71.8174C239.515 73.3666 238.861 74.8835 238.151 76.6547C239.1 76.4737 239.804 76.2862 240.52 76.2108C242.225 76.032 242.78 76.5728 242.704 78.275C242.683 78.7469 242.625 79.2166 242.571 79.8177C243.057 79.8716 243.453 79.9901 243.832 79.9449C244.923 79.8156 245.51 80.3392 245.852 81.3066C246.375 82.7869 247.236 83.8556 248.903 84.237C249.852 84.4524 250.704 86.6567 250.468 87.7814C250.397 88.1175 250.278 88.4494 250.145 88.7661C248.264 93.1703 247.141 97.8825 243.556 101.513C241.635 103.459 240.09 105.911 239.089 108.628C238.687 109.722 237.671 110.673 236.744 111.47C235.382 112.64 234.554 113.965 234.022 115.723C232.101 122.082 229.8 128.33 227.987 134.719C226.84 138.761 226.407 143.001 225.458 147.106C224.374 151.808 223.07 156.457 221.882 161.137C221.852 161.26 222.065 161.443 222.164 161.598C220.795 164.583 219.474 167.588 218.043 170.542C217.297 172.083 216.356 173.531 215.504 175.02C215.367 175.229 215.227 175.438 215.089 175.647L215.106 175.617C214.956 175.895 214.805 176.175 214.657 176.453L214.663 176.442C214.519 176.713 214.377 176.987 214.233 177.259H214.243C212.563 179.385 210.88 181.512 209.099 183.764C209.587 184.347 210.015 184.858 210.446 185.371L210.448 185.369Z" fill="#121212"/>
<path d="M119.528 439C119.662 438.636 119.728 438.224 119.939 437.916C126.345 428.601 132.761 419.295 139.187 409.994C139.378 409.718 139.647 409.496 139.882 409.248C140.904 412.971 141.982 416.68 142.933 420.42C144.262 425.643 145.523 430.883 146.754 436.13C146.969 437.052 146.894 438.043 146.952 439.002H119.528V439Z" fill="#E42336"/>
<path d="M307.579 4.05066C307.721 4.00325 307.861 3.95585 308.003 3.90845C307.926 4.01187 307.848 4.11314 307.771 4.21657C307.708 4.16054 307.644 4.10668 307.579 4.05281V4.05066Z" fill="#E52235"/>
<path d="M214.656 176.448C214.807 176.17 214.957 175.89 215.106 175.612C214.955 175.89 214.805 176.17 214.656 176.448Z" fill="#C09DA0"/>
<g clip-path="url(#clip1_4006_2)">
<path d="M330.88 284.159C327.157 287.643 323.427 291.121 319.714 294.612C317.568 296.629 315.468 298.685 313.3 300.68C312.654 301.273 312.368 301.845 312.471 302.701C312.776 305.259 312.997 307.826 313.194 310.392C313.228 310.835 313.134 311.423 312.834 311.731C309.782 314.831 306.674 317.891 303.577 320.954C303.564 320.965 303.55 320.974 303.531 320.983C303.367 321.048 303.19 320.915 303.204 320.754C303.42 318.549 303.622 316.382 303.85 314.219C304.403 308.981 304.949 303.742 305.562 298.508C305.648 297.769 305.965 297.067 306.475 296.487C309.349 293.219 312.295 290.002 315.213 286.767C315.518 286.429 315.809 286.082 316.148 285.687C316.222 285.602 316.215 285.48 316.136 285.399C312.473 281.784 308.847 278.206 305.127 274.536C305.03 274.443 304.867 274.44 304.769 274.534C301.805 277.358 298.953 280.136 296.009 282.833C295.235 283.542 294.237 284.137 293.221 284.525C290.287 285.65 287.29 286.647 284.315 287.687C284.026 287.787 283.731 287.876 283.324 287.996C283.094 288.066 282.906 287.82 283.055 287.647C290.851 278.712 298.405 270.049 306.222 261.085C306.326 260.967 306.528 260.974 306.619 261.1C306.943 261.547 307.229 261.905 307.494 262.214C313.901 269.779 322.226 275.829 329.604 282.626C329.986 282.979 330.426 283.282 330.851 283.598C331.041 283.74 331.053 283.997 330.885 284.157L330.88 284.159Z" fill="black"/>
</g>
<g clip-path="url(#clip2_4006_2)">
<path d="M280.999 172.282C281.088 172.057 281.125 171.959 281.214 171.736C281.557 171.635 281.906 171.551 282.223 171.396C287.029 169.047 291.828 166.683 296.631 164.328C296.981 164.156 297.346 164.015 298.03 163.716C296.567 165.638 295.421 167.333 294.078 168.853C293.034 170.035 292.91 171.087 293.507 172.534C294.677 175.375 295.7 178.28 296.777 181.212C296.968 181.731 297.516 182.032 298.058 181.919C304.156 180.633 310.101 179.391 316.029 178.083C316.414 178 316.85 177.365 316.952 176.915C317.653 173.87 318.213 170.791 318.945 167.753C319.268 166.414 319.051 165.508 317.989 164.54C316.412 163.104 315.051 161.432 313.73 160.003C319.368 161.797 325.24 163.666 330.999 165.499C330.234 169.394 329.515 173.053 328.798 176.714C326.519 188.332 324.227 199.949 321.981 211.574C321.786 212.575 321.386 212.94 320.357 213.074C310.874 214.314 301.397 215.62 291.921 216.91C290.224 217.142 290.097 217.075 289.916 215.297C289.31 209.312 288.748 203.32 288.124 197.338C287.582 192.13 287.456 186.863 285.062 181.985C283.712 179.235 282.787 176.276 281.652 173.417C281.493 173.018 281.209 172.668 280.997 172.288L280.999 172.282ZM303.999 193.966C300.129 192.981 296.394 192.031 292.531 191.048C294.288 196.662 299.076 197.748 303.999 193.966ZM308.734 193.465C314.81 196.118 318.797 193.527 319.297 188.065C315.794 189.857 312.374 191.604 308.734 193.465Z" fill="black"/>
</g>
</g>
<defs>
<clipPath id="clip0_4006_2">
<rect width="400" height="439" fill="white"/>
</clipPath>
<clipPath id="clip1_4006_2">
<rect width="48" height="60" fill="white" transform="translate(283 261)"/>
</clipPath>
<clipPath id="clip2_4006_2">
<rect width="50" height="57" fill="white" transform="translate(281 160)"/>
</clipPath>
</defs>
</svg>
