<?xml version="1.0" encoding="UTF-8"?>
<svg id="_Слой_2" data-name="Слой 2" xmlns="http://www.w3.org/2000/svg" viewBox="0 0 1630 1630">
  <defs>
    <style>
      .cls-1 {
        fill: #e42336;
        stroke-width: 0px;
      }
    </style>
  </defs>
  <g id="_Слой_1-2" data-name="Слой 1">
    <path class="cls-1" d="M815,0C364.89,0,0,364.89,0,815s364.89,815,815,815,815-364.89,815-815S1265.11,0,815,0ZM815,1506c-381.63,0-691-309.37-691-691S433.37,124,815,124s691,309.37,691,691-309.37,691-691,691Z"/>
    <path class="cls-1" d="M815,232c-321.98,0-583,261.02-583,583s261.02,583,583,583,583-261.02,583-583S1136.98,232,815,232ZM815,1309.3c-272.99,0-494.3-221.3-494.3-494.3s221.3-494.3,494.3-494.3,494.3,221.3,494.3,494.3-221.3,494.3-494.3,494.3Z"/>
    <path class="cls-1" d="M815,419c-218.7,0-396,177.3-396,396s177.3,396,396,396,396-177.3,396-396-177.3-396-396-396ZM815,1150.75c-185.43,0-335.75-150.32-335.75-335.75s150.32-335.75,335.75-335.75,335.75,150.32,335.75,335.75-150.32,335.75-335.75,335.75Z"/>
  </g>
</svg>