<svg width="276" height="130" viewBox="0 0 276 130" fill="none" xmlns="http://www.w3.org/2000/svg">
<path d="M92.5 -237C-8.84378 -237 -91 -154.844 -91 -53.5C-91 47.8438 -8.84378 130 92.5 130C193.844 130 276 47.8438 276 -53.5C276 -154.844 193.844 -237 92.5 -237ZM92.5 102.081C6.57472 102.081 -63.081 32.4253 -63.081 -53.5C-63.081 -139.425 6.57472 -209.081 92.5 -209.081C178.425 -209.081 248.081 -139.425 248.081 -53.5C248.081 32.4253 178.425 102.081 92.5 102.081Z" fill="#E42336"/>
<path d="M92.4998 -184.764C20.0049 -184.764 -38.7646 -125.995 -38.7646 -53.5C-38.7646 18.9949 20.0049 77.7644 92.4998 77.7644C164.995 77.7644 223.764 18.9949 223.764 -53.5C223.764 -125.995 164.995 -184.764 92.4998 -184.764ZM92.4998 57.7933C31.0352 57.7933 -18.7935 7.96688 -18.7935 -53.5C-18.7935 -114.967 31.0329 -164.793 92.4998 -164.793C153.967 -164.793 203.793 -114.967 203.793 -53.5C203.793 7.96688 153.967 57.7933 92.4998 57.7933Z" fill="#E42336"/>
<path d="M92.4996 -142.661C43.2586 -142.661 3.33887 -102.741 3.33887 -53.4999C3.33887 -4.25887 43.2586 35.6608 92.4996 35.6608C141.741 35.6608 181.66 -4.25887 181.66 -53.4999C181.66 -102.741 141.741 -142.661 92.4996 -142.661ZM92.4996 22.0953C50.7494 22.0953 16.9044 -11.7497 16.9044 -53.4999C16.9044 -95.2501 50.7494 -129.095 92.4996 -129.095C134.25 -129.095 168.095 -95.2501 168.095 -53.4999C168.095 -11.7497 134.25 22.0953 92.4996 22.0953Z" fill="#E42336"/>
</svg>
