<?xml version="1.0" encoding="UTF-8"?>
<svg id="_Слой_2" data-name="Слой 2" xmlns="http://www.w3.org/2000/svg" viewBox="0 0 237.53 96.45">
  <defs>
    <style>
      .cls-1 {
        fill: #000;
        stroke-width: 0px;
      }
    </style>
  </defs>
  <g id="_Слой_7" data-name="Слой 7">
    <path class="cls-1" d="M14.16,96.45l-5.64-19.21C4.66,63.21,2.96,48.58.19,34.24c-.05-.27-.11-.53-.19-.8,1.76-3.19,2.7-4.88,4.46-8.06l.16-.04c24.51-6.72,49-13.5,73.5-20.26,1.79-.49,3.62-.83,7.07-1.62-8.53,7.68-15.38,14.57-22.99,20.48-5.92,4.59-7.43,9.39-5.92,16.68,2.96,14.3,5.15,28.75,7.6,43.38.44,2.6,2.73,4.49,5.37,4.44,29.6-.61,58.44-1.15,87.27-2.02,1.87-.06,4.46-2.63,5.34-4.64,5.97-13.59,11.3-27.47,17.4-41,2.69-5.97,2.48-10.39-1.62-15.84-6.1-8.09-10.97-17.11-15.87-24.95,24.73,13.36,50.49,27.27,75.76,40.92-7.01,17.51-13.6,33.95-20.19,50.39l-203.18,5.14Z"/>
  </g>
</svg>