<svg width="99" height="155" viewBox="0 0 99 155" fill="none" xmlns="http://www.w3.org/2000/svg">
<path d="M-100.5 0C-210.68 0 -300 83.4994 -300 186.5C-300 289.501 -210.68 373 -100.5 373C9.6803 373 99 289.501 99 186.5C99 83.4994 9.6803 0 -100.5 0ZM-100.5 344.625C-193.917 344.625 -269.647 273.83 -269.647 186.5C-269.647 99.1699 -193.917 28.3755 -100.5 28.3755C-7.08259 28.3755 68.6466 99.1699 68.6466 186.5C68.6466 273.83 -7.08259 344.625 -100.5 344.625Z" fill="#E42336"/>
<path d="M-99 57C-176.872 57 -240 116.099 -240 189C-240 261.901 -176.872 321 -99 321C-21.1283 321 42 261.901 42 189C42 116.099 -21.1283 57 -99 57ZM-99 300.917C-165.023 300.917 -218.548 250.811 -218.548 189C-218.548 127.189 -165.026 77.083 -99 77.083C-32.9743 77.083 20.5477 127.189 20.5477 189C20.5477 250.811 -32.9743 300.917 -99 300.917Z" fill="#E42336"/>
</svg>
