<svg width="300" height="290" viewBox="0 0 300 290" fill="none" xmlns="http://www.w3.org/2000/svg">
<path d="M299.867 0L85.0873 41.18L79.1773 194.91C69.1173 191.53 57.6273 190.75 45.9473 193.27C15.4773 199.82 -4.67271 226.28 0.937287 252.36C6.54729 278.44 35.7973 294.27 66.2673 287.71C95.1573 281.49 114.767 257.39 111.947 232.68L118.847 70.35L264.057 43.22L265.007 184.19C254.237 179.86 241.557 178.62 228.647 181.39C198.177 187.95 178.027 214.4 183.637 240.48C189.247 266.56 218.497 282.39 248.967 275.83C278.717 269.43 298.627 244.06 294.327 218.59L299.867 0Z" fill="#F8F9FD"/>
</svg>
