<svg width="384" height="333" viewBox="0 0 384 333" fill="none" xmlns="http://www.w3.org/2000/svg">
<path d="M427.934 328.69C427.934 328.69 378.767 302.651 359.274 256.733C354.528 245.552 349.32 235.576 343.518 227.015C340.61 222.723 339.52 217.434 340.506 212.33C348.754 169.622 357.076 126.928 365.367 84.2295C368.942 65.8229 372.52 47.4164 376.322 27.8536C376.414 27.3764 376.14 26.9037 375.683 26.7573L292.629 0.0484393C291.708 -0.246723 290.994 0.874005 291.64 1.59748C297.577 8.25971 303.753 15.6676 310.779 22.1257C316.142 27.0569 317.236 31.6818 315.607 38.5127C311.912 54.0098 309.086 69.7177 305.543 85.2548C305.02 87.5473 302.819 90.7807 300.878 91.2135C270.885 97.9046 240.817 104.247 209.969 110.816C207.31 111.382 204.639 109.891 203.699 107.312C198.263 92.3919 193.126 77.6072 187.233 63.1398C184.545 56.5397 185.819 48.9854 190.468 43.6103C196.644 36.471 202.034 28.5815 208.628 19.7289C208.994 19.2362 208.48 18.5726 207.92 18.8123C205.722 19.7577 204.299 20.3502 202.919 21.0338C178.665 33.0533 154.429 45.1128 130.155 57.0968C129.959 57.1922 129.762 57.2854 129.562 57.3698C126.217 58.8167 124.723 62.7226 126.258 66.0559C126.783 67.1989 127.293 68.3595 127.838 69.5491C132.911 80.6409 132.911 86.6884 136.849 97.9578C146.476 125.521 154.02 149.427 158.077 175.055C158.823 179.775 159.454 184.556 159.955 189.427C160.422 193.961 160.881 198.497 161.336 203.031C162.037 215.286 159.744 258.071 97.0977 278.857C23.5227 303.275 -18.4273 339.227 -18.8666 381.393C-19.3058 423.559 21.3263 353.874 21.3263 353.874C21.3263 353.874 56.907 310.821 105.446 301.278C131.284 296.198 152.017 287.722 165.828 274.01C159.599 283.479 150.589 293.333 137.767 303.122C75.9799 350.297 47.8141 398.038 60.9131 438.075C74.012 478.113 90.1199 398.888 90.1199 398.888C90.1199 398.888 109.984 346.511 152.847 321.597C168.981 312.221 182.155 302.072 191.555 290.747C190.749 302.543 187.47 316.211 180.383 331.879C148.187 403.046 145.843 458.577 176.192 487.523C206.541 516.468 183.471 439.018 183.471 439.018C183.471 439.018 176.328 383.395 202.337 340.898C213.383 322.853 220.65 305.752 222.838 289.644C223.358 285.814 226.33 282.798 230.123 282.276C249.082 279.669 268.041 277.072 287.004 274.513C290.711 274.014 294.307 276.016 295.866 279.451C299.426 287.299 302.477 296.513 304.75 307.334C320.825 383.881 351.67 429.902 393.109 434.895C434.547 439.888 370.372 391.548 370.372 391.548C370.372 391.548 334.071 353.484 328.154 305.707C360.759 374.023 400.462 410.259 441.171 405.65C482.644 400.954 409.243 368.692 409.243 368.692C409.243 368.692 362.617 338.253 347.33 290.736C344.873 283.095 342.165 275.963 339.169 269.389C339.18 269.385 339.16 269.394 339.169 269.389C378.387 337.112 422.105 371.065 463.051 362.572C503.931 354.092 427.936 328.694 427.936 328.694L427.934 328.69ZM265.846 168.774L315.82 142.96C316.496 142.609 317.282 143.169 317.19 143.932C314.052 170.019 294.895 182.43 265.921 170.512C265.172 170.204 265.126 169.145 265.846 168.774ZM182.755 159.052C182.509 158.333 183.152 157.623 183.884 157.811L238.208 171.779C238.987 171.979 239.176 173.007 238.526 173.484C214.722 190.96 191.839 185.636 182.755 159.054V159.052Z" fill="#E42336"/>
</svg>
