<?xml version="1.0" encoding="UTF-8"?>
<svg id="_Слой_2" data-name="Слой 2" xmlns="http://www.w3.org/2000/svg" viewBox="0 0 2249.2 2225.96">
  <defs>
    <style>
      .cls-1 {
        fill: #e42336;
        stroke-width: 0px;
      }
    </style>
  </defs>
  <g id="_Слой_3" data-name="Слой 3">
    <path class="cls-1" d="M2034.32,1481.08s-223.86-117.33-312.61-324.24c-21.61-50.38-45.32-95.33-71.74-133.91-13.24-19.34-18.2-43.17-13.71-66.17,37.55-192.44,75.44-384.82,113.19-577.22,16.28-82.94,32.57-165.88,49.88-254.03.42-2.15-.83-4.28-2.91-4.94L1418.27.22c-4.19-1.33-7.44,3.72-4.5,6.98,27.03,30.02,55.15,63.4,87.14,92.5,24.42,22.22,29.4,43.06,21.98,73.84-16.82,69.83-29.69,140.61-45.82,210.62-2.38,10.33-12.4,24.9-21.24,26.85-136.56,30.15-273.46,58.73-413.91,88.33-12.11,2.55-24.27-4.17-28.55-15.79-24.75-67.23-48.14-133.85-74.97-199.04-12.24-29.74-6.44-63.78,14.73-88,28.12-32.17,52.66-67.72,82.68-107.61,1.67-2.22-.67-5.21-3.22-4.13-10.01,4.26-16.49,6.93-22.77,10.01-110.43,54.16-220.78,108.5-331.3,162.5-.89.43-1.79.85-2.7,1.23-15.23,6.52-22.03,24.12-15.04,39.14,2.39,5.15,4.71,10.38,7.19,15.74,23.1,49.98,23.1,77.23,41.03,128.01,43.83,124.2,78.18,231.92,96.65,347.4,3.4,21.27,6.27,42.81,8.55,64.76,2.13,20.43,4.22,40.87,6.29,61.3,3.19,55.22-7.25,248.01-292.48,341.67C193.02,1366.56,2.02,1528.56.02,1718.56s183-124,183-124c0,0,162-194,383-237,117.64-22.89,212.04-61.08,274.92-122.87-28.36,42.67-69.38,87.07-127.76,131.18-281.32,212.57-409.56,427.69-349.92,608.1,59.64,180.41,132.98-176.58,132.98-176.58,0,0,90.44-236.01,285.6-348.27,73.46-42.25,133.44-87.98,176.24-139.01-3.67,53.15-18.6,114.74-50.87,185.34-146.59,320.68-157.26,570.9-19.08,701.33,138.18,130.43,33.14-218.56,33.14-218.56,0,0-32.52-250.64,85.9-442.13,50.29-81.31,83.38-158.37,93.34-230.95,2.37-17.26,15.9-30.85,33.17-33.2,86.32-11.75,172.64-23.45,258.98-34.98,16.88-2.25,33.25,6.77,40.35,22.25,16.21,35.36,30.1,76.88,40.45,125.64,73.19,344.92,213.63,552.29,402.3,574.79,188.67,22.5-103.52-195.32-103.52-195.32,0,0-165.28-171.52-192.22-386.8,148.45,307.83,329.22,471.11,514.57,450.34,188.83-21.16-145.37-166.53-145.37-166.53,0,0-212.29-137.16-281.89-351.27-11.19-34.43-23.52-66.57-37.16-96.19.05-.02-.04.02,0,0,178.56,305.16,377.61,458.15,564.04,419.88,186.13-38.21-159.88-152.65-159.88-152.65ZM1296.33,760.5l227.53-116.32c3.08-1.58,6.66.94,6.24,4.38-14.29,117.55-101.51,173.47-233.43,119.77-3.41-1.39-3.62-6.16-.34-7.83ZM918.01,716.69c-1.12-3.24,1.81-6.44,5.14-5.59l247.34,62.94c3.55.9,4.41,5.53,1.45,7.68-108.38,78.75-212.57,54.76-253.93-65.02Z"/>
  </g>
</svg>