<svg width="187" height="443" viewBox="0 0 187 443" fill="none" xmlns="http://www.w3.org/2000/svg">
<path d="M184.074 405.153C99.9641 376.71 40.2892 305.124 40.2892 221.309C40.2892 137.494 99.9641 65.9113 184.074 37.4678V0C77.3062 29.9479 0 117.707 0 221.312C0 324.916 77.3062 412.673 184.074 442.623V405.155V405.153Z" fill="#F8F9FD"/>
<path d="M184.074 342.41C136.591 318.141 104.677 272.999 104.677 221.314C104.677 169.628 136.593 124.484 184.074 100.216V71.8402C120.219 98.2697 76.0308 155.262 76.0308 221.312C76.0308 287.361 120.219 344.353 184.074 370.783V342.408V342.41Z" fill="#F8F9FD"/>
<path d="M186.075 286.637C168.056 269.256 157.073 246.159 157.073 220.814C157.073 195.469 168.056 172.372 186.075 154.99V130.928C156.18 152.087 137.055 184.49 137.055 220.811C137.055 257.133 156.18 289.538 186.075 310.695V286.635V286.637Z" fill="#F8F9FD"/>
</svg>
