<?xml version="1.0" encoding="UTF-8"?>
<svg id="_Слой_2" data-name="Слой 2" xmlns="http://www.w3.org/2000/svg" viewBox="0 0 1328.45 2207.43">
  <defs>
    <style>
      .cls-1 {
        fill: #000;
        stroke-width: 0px;
      }
    </style>
  </defs>
  <g id="_Слой_13" data-name="Слой 13">
    <path class="cls-1" d="M0,1513.43C1.09,1491.4,0,76.43,0,76.43l436,754c.54-45.56,19-249,18.92-249.18.08.18,3.01-66.84,2.08-66.82,0,0-46-317-45.56-316.27-.29-1.66-.04-3.5-.04-7.58,3.73-2.38,7.98-5.78,12.54-7.92,103.43-48.62,189.89-95.14,293.37-143.52,4.14-1.94,8.63-2.44,12.95-3.61.6.7,1.18,1.41,1.76,2.13-32.6,46.63-64.71,93.96-98.08,139.48-9.98,13.62-12.59,25.62-9.45,44.32,15.66,93.37,18.4,112.05,33.55,205.6.96,5.94,2.65,11.64,4.2,18.32,51.61-4.97,102.46-9.71,153.3-14.8,69.4-6.95,138.76-14.82,208.21-20.74,15.59-1.33,23.15.6,28.24-20.41,21.79-89.97,23.83-96.97,46.95-186.28,3.91-15.11,1.85-24.82-4.68-36.3-27.13-47.67-53.92-95.72-80.51-143.99-3.63-6.59-5.41-15.19-8.04-22.86,3.25,2.75,6.36,5.91,9.78,8.18,98.68,65.58,197.39,131.05,296.07,196.61,6.13,4.07,12.06,8.72,16.89,12.23-23.42,95.94-25.25,96.84-47.79,189.87-69.55,287.03-182.16,658.5-251.66,945.55-12.48,51.54-576.25,797.68-589,850l-440,5v-694ZM759.06,793.47c-.13-2.03-.26-4.07-.39-6.1-68.9-38.98-163.67-90.94-230.67-132.94,12,43,36.2,90.39,52.26,120.13,13.53,25.06,31.17,42.86,52.88,50.02,45.14,14.88,86.33-2.99,125.92-31.11ZM868.01,790.75c-.42,2.74-.84,5.48-1.27,8.22,20.61,10.93,40.84,23.8,61.96,32.15,15.06,5.95,31.32,7.91,47.06,7.98,37.32.15,69.63-39.42,87.24-71.66,13.26-22.88,35-74,51-105-67,38-175.84,93.7-245.99,128.31Z"/>
  </g>
</svg>