<?xml version="1.0" encoding="UTF-8"?>
<svg id="_Слой_2" data-name="Слой 2" xmlns="http://www.w3.org/2000/svg" viewBox="0 0 254 254">
  <defs>
    <style>
      .cls-1 {
        fill: #ebf4f5;
        stroke-width: 0px;
      }
    </style>
  </defs>
  <g id="_Слой_4" data-name="Слой 4">
    <g>
      <path class="cls-1" d="M127,0C56.86,0,0,56.86,0,127s56.86,127,127,127,127-56.86,127-127S197.14,0,127,0ZM127,227.06c-55.26,0-100.06-44.8-100.06-100.06S71.74,26.94,127,26.94s100.06,44.8,100.06,100.06-44.8,100.06-100.06,100.06Z"/>
      <path class="cls-1" d="M166.77,98.82v-11.59h-11.59c-5.84-4.15-12.63-7.04-19.98-8.28l-8.19-8.19-8.19,8.19c-7.35,1.24-14.14,4.13-19.98,8.28h-11.59v11.59c-4.15,5.84-7.04,12.63-8.28,19.98l-8.19,8.19,8.19,8.19c1.24,7.35,4.13,14.14,8.28,19.98v11.59h11.59c5.84,4.15,12.63,7.04,19.98,8.28l8.19,8.19,8.19-8.19c7.35-1.24,14.14-4.13,19.98-8.28h11.59v-11.59c4.15-5.84,7.04-12.63,8.28-19.98l8.19-8.19-8.19-8.19c-1.24-7.35-4.13-14.14-8.28-19.98Z"/>
    </g>
  </g>
</svg>