<svg width="767" height="1052" viewBox="0 0 767 1052" fill="none" xmlns="http://www.w3.org/2000/svg">
<path d="M767 63.5279C699.749 42.1307 632.853 20.8506 567.321 0C598.164 33.3595 629.924 72.4127 666.747 105.9C691.543 128.451 696.592 149.596 689.064 180.844C671.991 251.716 658.924 323.546 642.547 394.599C640.129 405.085 629.959 419.873 620.986 421.854C482.571 452.398 343.804 481.363 201.451 511.358C188.792 514.024 176.034 507.02 171.567 494.884C146.387 426.482 122.571 358.713 95.2252 292.402C81.2949 258.623 84.196 234.074 108.566 206.518C139.931 171.057 166.702 131.532 200.84 86.6751C184.875 93.6147 176.35 96.9265 168.172 100.934C56.0514 155.904 112.199 134.989 0 189.792V1052H767V63.5279ZM72.4389 664.436C162.622 687.377 249.811 709.555 340.161 732.539C225.225 820.787 113.466 795.411 72.4389 664.436ZM450.683 720.819C535.643 677.399 615.489 636.593 697.249 594.81C685.588 722.26 592.529 782.738 450.683 720.819Z" fill="#E42336"/>
<rect x="449.015" y="592.249" width="249.275" height="153.25" fill="#E42336"/>
<rect x="71.9062" y="664.085" width="268.45" height="126.112" fill="#E42336"/>
</svg>
