<svg width="400" height="439" viewBox="0 0 400 439" fill="none" xmlns="http://www.w3.org/2000/svg">
<path d="M307.77 4.21239C304.239 7.80854 300.762 11.4607 297.147 14.9707C296.067 16.02 295.783 16.9465 296.123 18.388C297.819 25.5911 299.415 32.8157 301.055 40.0317C301.158 40.4907 301.341 40.9302 301.511 41.4452C307.101 41.0616 312.607 40.6954 318.114 40.3032C325.63 39.7667 333.141 39.1591 340.664 38.7044C342.353 38.601 343.231 38.03 343.782 36.4097C346.142 29.4695 348.576 22.5551 351.08 15.6666C351.504 14.501 351.28 13.7511 350.573 12.8677C347.633 9.19184 344.733 5.4858 341.854 1.76252C341.46 1.25402 341.268 0.590381 340.982 0C341.335 0.211158 341.671 0.456791 342.041 0.63132C352.729 5.6905 363.418 10.7389 374.106 15.7959C374.769 16.1105 375.412 16.4682 375.935 16.7397C373.398 24.1388 370.926 31.3053 368.486 38.4803C360.952 60.6196 353.434 82.7632 345.908 104.903C344.556 108.878 343.19 112.849 341.809 116.882C342.217 117.057 342.454 117.227 342.706 117.255C345.241 117.535 347.777 117.796 350.316 118.052C357.863 118.815 365.409 119.582 372.957 120.319C374.009 120.423 374.579 120.826 374.709 121.94C374.851 123.168 375.156 124.374 375.382 125.594C377.228 135.598 379.064 145.604 380.916 155.608C383.901 171.738 386.9 187.864 389.882 203.994C392.589 218.626 395.27 233.263 397.992 247.893C398.597 251.138 399.326 254.362 399.998 257.594V265.915C399.89 265.999 399.763 266.07 399.677 266.171C387.6 280.541 375.513 294.9 363.487 309.31C362.833 310.094 362.411 311.267 362.319 312.299C361.944 316.433 361.74 320.585 361.475 324.731C360.223 344.367 358.971 364.004 357.725 383.64C356.873 397.055 355.991 410.468 355.225 423.887C355.074 426.52 354.101 428.655 352.554 430.681C350.459 433.422 348.447 436.225 346.398 439.002H264.957C265.125 438.343 265.229 437.662 265.467 437.031C267.862 430.683 270.253 424.335 272.714 418.013C273.194 416.781 273.218 415.708 272.816 414.441C262.939 383.228 253.104 352.003 243.255 320.782C243.081 320.23 242.833 319.7 242.493 318.836C242.097 319.728 241.841 320.267 241.615 320.82C234.435 338.45 227.246 356.075 220.09 373.713C216.083 383.586 212.16 393.493 208.124 403.353C207.586 404.667 206.835 406.061 205.796 406.975C201.326 410.907 196.711 414.676 192.149 418.505C191.03 416.604 189.903 414.71 188.797 412.803C187.495 410.558 187.936 408.412 189.903 406.99C189.903 406.051 189.791 405.152 189.922 404.29C190.622 399.651 191.424 395.027 192.1 390.386C192.496 387.665 191.865 385.086 190.542 382.694C190.008 381.731 189.359 380.83 188.769 379.899C185.84 375.275 183.273 370.492 181.561 365.248C180.382 361.641 178.914 358.122 177.44 354.623C174.925 348.646 172.306 342.714 169.73 336.763C170.184 335.367 170.639 333.97 171.093 332.574C174.49 331.038 177.92 329.566 181.277 327.944C183.869 326.69 183.788 326.543 183.218 323.764C181.86 317.121 181.016 310.413 180.857 303.626C181.165 302.87 181.513 302.126 181.776 301.355C185.393 290.75 189.014 280.144 192.595 269.526C193.255 267.568 193.922 265.583 194.269 263.556C196.369 251.278 198.392 238.988 200.408 226.698C201.191 221.923 201.895 217.135 202.633 212.352C203.394 209.975 205.2 208.566 207.158 207.198C210.652 204.757 214.056 202.184 217.467 199.622C218.781 198.635 218.846 197.847 217.873 196.468C215.689 193.376 213.475 190.307 211.31 187.205C210.93 186.66 210.73 185.987 210.448 185.373C211.62 183.113 212.808 180.859 213.951 178.582C214.146 178.189 214.153 177.703 214.245 177.259H214.235C214.379 176.985 214.521 176.714 214.665 176.442L214.659 176.453C214.809 176.175 214.96 175.895 215.108 175.617L215.091 175.647C215.229 175.438 215.369 175.229 215.506 175.02C216.358 173.531 217.299 172.083 218.045 170.543C219.476 167.591 220.8 164.583 222.166 161.598C222.558 161.055 223.027 160.551 223.326 159.961C231.371 144.105 239.401 128.24 247.423 112.373C248.23 110.774 248.968 109.141 249.816 107.357C258.788 108.275 267.772 109.195 276.966 110.136C277.085 108.436 277.239 106.876 277.295 105.31C277.622 96.1028 277.93 86.8959 278.238 77.6868C278.526 69.1026 278.843 60.5184 279.06 51.932C279.101 50.2944 278.911 48.6052 278.535 47.0107C276.138 36.9139 273.659 26.8365 271.21 16.7526C271.18 16.6255 271.206 16.4833 271.206 16.1687C271.611 15.9855 272.071 15.7227 272.564 15.5589C283.766 11.8076 294.97 8.0671 306.178 4.33521C306.628 4.18653 307.112 4.14775 307.581 4.05725C307.646 4.11112 307.71 4.16499 307.773 4.22101L307.77 4.21239ZM311.999 68.2924C311.986 68.1351 311.971 67.9779 311.958 67.8227C304.495 64.8148 297.033 61.809 289.285 58.6869C289.887 61.934 290.894 64.5411 292.635 66.8359C294.1 68.7686 296.011 70.1411 298.363 70.6927C303.252 71.8412 307.712 70.4622 312.001 68.2924H311.999ZM322.497 68.0834C322.452 68.2946 322.406 68.5057 322.359 68.7169C324.59 69.5594 326.781 70.5527 329.07 71.1969C330.701 71.6559 332.464 71.8067 334.168 71.8132C338.209 71.8239 340.632 69.0854 342.923 66.267C344.358 64.5024 345.191 62.4533 345.503 59.9991C337.692 62.7441 330.095 65.4138 322.497 68.0834Z" fill="#E52235"/>
<path d="M210.448 185.365C210.732 185.979 210.93 186.651 211.311 187.196C213.475 190.301 215.689 193.369 217.873 196.459C218.848 197.838 218.781 198.627 217.467 199.614C214.058 202.175 210.652 204.746 207.158 207.189C205.2 208.558 203.397 209.967 202.633 212.343C202.226 213.138 201.789 213.918 201.415 214.729C200.195 217.368 199.136 220.092 197.763 222.649C194.654 228.445 191.379 234.151 188.218 239.921C187.73 240.811 187.454 241.83 187.155 242.81C186.654 244.457 186.331 246.167 185.718 247.771C184.827 250.095 183.702 252.33 182.755 254.635C181.727 257.141 180.93 259.707 180.892 262.465C180.765 271.474 180.537 280.483 180.485 289.491C180.459 294.199 180.722 298.91 180.853 303.618C181.01 310.405 181.853 317.112 183.213 323.755C183.781 326.537 183.863 326.681 181.272 327.935C177.916 329.558 174.486 331.029 171.088 332.566C170 332.751 168.913 332.934 167.592 333.158C168.422 334.557 169.074 335.655 169.726 336.752C172.302 342.703 174.923 348.635 177.436 354.612C178.91 358.114 180.377 361.632 181.557 365.237C183.271 370.481 185.838 375.263 188.765 379.889C189.354 380.822 190.006 381.72 190.538 382.683C191.861 385.075 192.492 387.654 192.096 390.376C191.42 395.017 190.617 399.641 189.918 404.28C189.789 405.142 189.899 406.04 189.899 406.979C187.932 408.402 187.491 410.548 188.793 412.793C189.899 414.7 191.026 416.594 192.145 418.494C192.877 420.119 193.675 421.715 194.308 423.379C194.544 423.999 194.4 424.766 194.422 425.467C194.437 425.977 194.366 426.501 194.458 426.994C194.598 427.735 194.93 428.444 195.039 429.186C195.519 432.45 195.947 435.723 196.395 438.994H146.948C146.89 438.035 146.965 437.044 146.75 436.121C145.519 430.875 144.261 425.635 142.929 420.412C141.975 416.671 140.9 412.963 139.878 409.24C139.619 407.609 139.434 405.962 139.088 404.351C138.363 400.97 137.44 397.628 136.831 394.228C136.588 392.875 136.106 391.826 135.038 391.128C132.499 389.471 129.861 387.962 127.324 386.299C124.135 384.209 121.321 385.523 118.717 387.335C117.459 388.212 116.452 389.589 115.628 390.923C114.321 393.034 113.347 395.351 112.086 397.492C109.493 401.894 106.829 406.258 104.142 410.604C102.287 413.601 100.303 416.518 98.4589 419.522C97.964 420.328 97.766 421.317 97.4368 422.226C96.7827 424.034 96.277 425.915 95.4486 427.638C94.1941 430.254 92.6621 432.739 91.3582 435.331C90.7772 436.483 90.4609 437.77 90.0241 438.994H40.1621C40.4095 438.354 40.5774 437.666 40.9195 437.082C45.2853 429.612 49.7157 422.176 54.0407 414.682C55.3877 412.349 56.4377 409.843 57.6987 407.456C58.1419 406.617 58.1441 405.969 57.6427 405.159C56.5496 403.394 55.6309 401.517 54.4861 399.789C53.8944 398.897 53.9568 398.139 54.3204 397.281C54.5356 396.773 54.7422 396.253 55.0112 395.773C60.4916 386.038 65.0016 375.864 69.1997 365.513C71.7172 359.309 75.0502 353.438 77.9723 347.396C78.6027 346.093 79.84 344.977 79.3537 343.242C79.2827 342.986 79.8378 342.443 80.2122 342.197C80.8448 341.783 81.5441 341.454 82.2499 341.174C84.6663 340.217 85.7959 338.161 86.6158 335.92C86.7814 335.468 86.407 334.617 86.0176 334.197C82.4715 330.355 77.9529 329.004 72.8705 329.325C70.2497 329.491 67.6397 329.827 65.0253 330.094C64.6143 330.137 64.1775 330.348 63.8031 330.262C62.9725 330.07 61.9096 329.956 61.4513 329.396C61.1135 328.982 61.3932 327.815 61.7202 327.142C63.7278 323.04 65.9592 319.041 67.8462 314.887C68.8683 312.637 69.4686 310.172 70.0582 307.755C71.3643 302.396 72.5434 297.005 73.7764 291.627C73.8388 291.357 73.8797 291.064 74.0174 290.834C78.2068 283.833 80.2251 276.124 81.1762 268.124C82.0218 261.02 81.9271 253.907 81.0815 246.773C80.3155 240.324 78.8566 234.08 76.4445 228.092C75.3428 225.358 73.9076 222.656 72.1282 220.316C63.9774 209.59 54.9681 199.631 44.8464 190.715C43.4026 189.443 43.4392 189.073 44.8421 187.812C47.2563 185.647 49.649 183.456 52.13 181.204C45.4144 173.202 40.0932 164.359 34.9936 155.378C32.1921 150.446 29.5799 145.404 26.8601 140.425C26.4663 139.703 26.1027 138.794 25.4636 138.41C23.1591 137.031 22.5566 134.646 21.5496 132.461C21.13 131.552 20.5254 130.713 19.9186 129.91C18.4231 127.93 16.8847 125.982 15.3483 124.034C14.6662 123.168 14.0336 122.237 13.2289 121.498C10.791 119.261 8.27559 117.109 5.80326 114.909C5.5515 114.685 5.34279 114.388 5.18141 114.088C3.72899 111.41 2.28088 108.729 0.849976 106.04C-0.286137 103.905 -0.372207 101.809 1.09312 99.9943C0.794031 98.7661 0.411023 97.7232 0.309892 96.6567C0.0667462 94.1249 0.615437 93.7608 3.08132 94.8209C2.58857 91.6191 5.64833 91.0071 7.15239 88.79C5.7925 87.2645 4.41754 85.4265 2.73704 83.9312C1.35994 82.7052 0.914528 81.2141 0.649865 79.5873C0.41963 78.176 1.64181 77.1698 3.02107 77.6632C3.84518 77.9584 4.65423 78.4648 5.3019 79.0595C8.9706 82.4272 12.7985 85.6614 15.0621 90.2702C15.273 90.699 15.7636 91.0696 16.2112 91.2894C18.9288 92.6253 21.8422 93.2308 24.8482 93.2264C27.2065 93.2221 28.5513 94.2865 29.2851 96.4865C30.0941 98.9126 31.3185 101.218 31.9339 103.683C32.4201 105.629 32.2566 107.734 32.4029 110.143C34.3847 111.821 35.637 114.661 36.4675 117.406C38.2879 123.422 41.395 128.649 44.9755 133.676C47.5834 137.337 50.2558 140.95 52.9025 144.583C56.9413 150.125 60.9865 155.658 65.0167 161.206C66.6434 163.447 68.2206 165.723 69.8581 167.955C70.1249 168.317 70.5746 168.772 70.9533 168.787C72.4402 168.84 73.2083 169.827 74.2024 170.724C75.614 171.997 77.2816 173.023 78.9427 173.971C81.5183 175.442 84.18 176.77 86.8137 178.14C87.3581 178.422 87.9369 178.655 88.5179 178.853C90.2178 179.435 91.98 179.814 92.1887 182.189C92.2447 182.839 93.1441 183.525 93.8004 183.992C95.8854 185.479 97.7811 187.446 100.755 186.901C101.237 186.813 101.818 187.151 102.33 187.349C105.676 188.644 109.022 189.935 112.346 191.279C112.826 191.473 113.527 191.919 113.558 192.294C113.775 194.949 116.019 195.186 117.747 195.558C119.324 195.899 120.613 196.317 121.487 197.75C121.629 197.72 121.771 197.689 121.913 197.659C122.044 194.643 122.3 191.626 122.244 188.614C122.225 187.521 121.581 186.373 121.011 185.369C120.054 183.686 118.827 182.156 117.895 180.465C115.825 176.711 114.84 172.788 116.428 168.547C116.607 168.069 116.555 167.457 116.465 166.931C116.006 164.279 115.905 161.463 114.887 159.037C114.009 156.947 114.883 155.634 115.468 153.943C116.073 152.198 116.176 150.284 116.667 148.492C116.981 147.345 117.599 146.283 118.162 144.993C118.874 145.439 119.253 145.678 119.854 146.053C120.361 145.197 121.08 144.396 121.323 143.469C121.616 142.357 121.564 141.138 121.551 139.968C121.536 138.535 122.016 137.419 123.505 136.501C124.503 138.13 124.478 140.735 127.264 140.866C126.851 138.634 129.353 138.057 129.921 136.292C129.967 136.15 130.709 136.02 130.812 136.145C131.137 136.542 131.462 137.046 131.518 137.539C131.632 138.55 131.337 139.668 132.549 140.246C134.107 138.679 134.085 138.707 135.942 140.125C136.398 140.474 137.037 140.629 137.618 140.759C138.494 140.955 139.393 141.052 140.637 141.246C141.274 140.534 142.176 139.528 143.217 138.363C145.926 140.543 148.887 142.03 151.495 144.279C154.128 146.55 153.625 148.78 153.156 151.278C152.915 152.56 153.037 153.357 154.219 153.99C155.787 154.833 156.431 156.203 156.231 157.983C156.177 158.461 156.136 158.974 156.25 159.431C157.352 163.844 157.395 168.325 157.203 172.829C157.186 173.24 157.197 173.678 157.322 174.063C158.335 177.198 157.78 180.314 157.343 183.456C157.197 184.503 157.492 185.606 157.507 186.685C157.52 187.683 157.717 188.814 157.337 189.661C155.607 193.505 153.698 197.267 151.858 201.059C151.712 201.361 151.583 201.673 151.45 201.971C153.205 203.134 154.955 203.429 157.003 203.011C160.104 202.378 163.269 202.068 166.74 201.574C166.6 201.727 166.815 201.6 166.858 201.428C167.658 198.2 170.21 196.64 172.859 195.261C174.178 194.574 175.052 193.697 175.502 192.283C176.724 188.431 178.378 184.766 180.853 181.553C182.807 179.017 184.547 176.237 187.607 174.774C188.016 174.578 188.281 174.089 188.627 173.755C190.073 172.361 191.424 170.849 192.995 169.612C195.949 167.285 197.617 164.249 198.785 160.735C200.029 156.998 201.464 153.305 203.123 149.737C206.592 142.269 210.248 134.887 213.863 127.488C214.895 125.374 216.152 123.368 217.133 121.233C219.623 115.82 220.763 110.067 221.273 104.159C221.432 102.302 221.665 100.434 222.065 98.6153C222.816 95.1829 222.917 91.6083 224.471 88.3439C225.342 86.5125 226.517 84.9999 227.791 83.427C229.945 80.766 231.563 77.6632 233.325 74.6984C234.597 72.5588 235.655 70.2878 236.974 68.1805C237.697 67.0277 238.7 66.0194 239.713 65.0972C240.062 64.7804 240.918 64.7222 241.377 64.9226C241.702 65.0648 241.988 65.9116 241.874 66.3275C241.362 68.1805 240.733 70.0034 240.077 71.8133C239.516 73.3625 238.861 74.8794 238.151 76.6505C239.1 76.4695 239.804 76.2821 240.52 76.2067C242.225 76.0278 242.78 76.5686 242.704 78.2708C242.683 78.7427 242.625 79.2124 242.571 79.8136C243.057 79.8675 243.453 79.986 243.832 79.9407C244.923 79.8114 245.51 80.335 245.852 81.3025C246.375 82.7827 247.236 83.8514 248.904 84.2328C249.852 84.4483 250.704 86.6525 250.468 87.7773C250.397 88.1134 250.278 88.4452 250.145 88.762C248.264 93.1661 247.141 97.8784 243.556 101.509C241.635 103.455 240.09 105.907 239.089 108.624C238.687 109.718 237.671 110.669 236.744 111.466C235.382 112.636 234.554 113.961 234.022 115.719C232.101 122.078 229.8 128.326 227.987 134.715C226.84 138.757 226.407 142.997 225.458 147.102C224.374 151.803 223.07 156.453 221.882 161.133C221.852 161.256 222.065 161.439 222.164 161.594C220.795 164.579 219.474 167.584 218.043 170.538C217.297 172.079 216.356 173.527 215.504 175.016C215.367 175.225 215.227 175.434 215.089 175.643L215.106 175.613C214.956 175.891 214.805 176.171 214.657 176.449L214.663 176.438C214.519 176.709 214.377 176.983 214.233 177.254H214.243C212.563 179.381 210.88 181.508 209.099 183.759C209.587 184.343 210.015 184.854 210.446 185.367L210.448 185.365Z" fill="#121212"/>
<path d="M119.528 438.996C119.662 438.632 119.728 438.22 119.939 437.912C126.345 428.597 132.761 419.291 139.187 409.99C139.378 409.714 139.647 409.492 139.882 409.244C140.904 412.967 141.982 416.675 142.933 420.416C144.262 425.639 145.523 430.879 146.754 436.126C146.969 437.048 146.894 438.039 146.952 438.998H119.528V438.996Z" fill="#E42336"/>
<path d="M307.579 4.04651C307.721 3.9991 307.861 3.9517 308.003 3.9043C307.926 4.00772 307.848 4.10899 307.771 4.21242C307.708 4.15639 307.644 4.10253 307.579 4.04866V4.04651Z" fill="#E52235"/>
<path d="M214.656 176.444C214.807 176.166 214.957 175.886 215.106 175.608C214.955 175.886 214.805 176.166 214.656 176.444Z" fill="#C09DA0"/>
</svg>
