<?xml version="1.0" encoding="UTF-8"?>
<svg id="_Слой_2" data-name="Слой 2" xmlns="http://www.w3.org/2000/svg" viewBox="0 0 877.5 654.3">
  <defs>
    <style>
      .cls-1 {
        fill: #e52235;
        stroke-width: 0px;
      }
    </style>
  </defs>
  <g id="_Слой_17" data-name="Слой 17">
    <path class="cls-1" d="M93.35,457.91c4.82,12.94,8.16,26.87,9.51,40.6,5.11,51.9,9.77,103.85,14.42,155.79h645.43c24.98-120.38,49.96-240.76,74.98-361.13,13-62.54,26.26-125.01,39.83-189.52-4.66-1.72-10.41-4.05-16.29-5.98-94.73-31.18-189.48-62.3-284.2-93.49-3.28-1.08-6.35-2.77-9.52-4.18,3,4.65,5.31,10,9.12,13.84,27.97,28.14,56.11,56.11,84.53,83.8,6.84,6.67,9.49,12.7,7.15,22.88-13.82,60.2-27.04,120.55-39.6,181.02-2.93,14.12-9.7,19.82-23.73,22.43-62.5,11.62-124.76,24.51-187.14,36.79-45.69,9-91.43,17.78-137.83,26.79-1.94-4.14-3.93-7.62-5.28-11.34-21.22-58.62-42.08-117.38-63.75-175.84-4.34-11.7-2.94-19.74,5.03-29.64,26.61-33.11,51.95-67.24,77.78-100.98-.58-.4-1.17-.8-1.77-1.18-3.83,1.24-7.85,2.07-11.45,3.78C190.57,115.21,100.64,158.13,10.74,201.12c-3.96,1.89-7.55,4.56-10.74,6.52.33,2.63.25,3.85.64,4.89,30.96,81.77,62.17,163.45,92.71,245.39ZM403.03,569.8c.41,1.26.82,2.52,1.23,3.78-31.18,25.89-65.27,45.62-107.64,45.4-20.38-.11-38.67-7.78-54.36-20.89-18.62-15.57-31.82-35.08-42.88-60.61,42.9-21.6,80.13-42.92,112.62-37.77,35.24,5.59,63.57,41.76,91.02,70.08ZM560.83,467.84c29.93-13.64,71.5-3.04,118.61,6.32-3.84,27.55-11.34,49.88-25.13,69.86-11.62,16.83-27.19,29.11-46.8,34.65-40.77,11.52-78.89,1.62-115.85-15,.06-1.32.12-2.65.17-3.98,18.89-34.63,36.54-77.05,69-91.85Z"/>
  </g>
</svg>