<svg width="507" height="173" viewBox="0 0 507 173" fill="none" xmlns="http://www.w3.org/2000/svg">
<path d="M253 -340C112.995 -340 -0.5 -225.162 -0.5 -83.5C-0.5 58.1616 112.995 173 253 173C393.005 173 506.5 58.1616 506.5 -83.5C506.5 -225.162 393.005 -340 253 -340ZM253 133.975C134.297 133.975 38.0687 36.6079 38.0687 -83.5C38.0687 -203.608 134.297 -300.975 253 -300.975C371.703 -300.975 467.931 -203.608 467.931 -83.5C467.931 36.6079 371.703 133.975 253 133.975Z" fill="#E42336"/>
<path d="M253.5 -265.985C153.349 -265.985 72.1611 -183.837 72.1611 -82.5C72.1611 18.8365 153.349 100.985 253.5 100.985C353.651 100.985 434.839 18.8365 434.839 -82.5C434.839 -183.837 353.651 -265.985 253.5 -265.985ZM253.5 73.069C168.587 73.069 99.7528 3.41978 99.7528 -82.4978C99.7528 -168.415 168.587 -238.064 253.5 -238.064C338.413 -238.064 407.247 -168.415 407.247 -82.4978C407.247 3.41978 338.413 73.069 253.5 73.069Z" fill="#E42336"/>
<path d="M253.5 -206.13C185.474 -206.13 130.326 -150.331 130.326 -81.4977C130.326 -12.6641 185.472 43.1341 253.5 43.1341C321.529 43.1341 376.674 -12.6641 376.674 -81.4977C376.674 -150.331 321.529 -206.13 253.5 -206.13ZM253.5 24.169C195.823 24.169 149.067 -23.1402 149.067 -81.5C149.067 -139.86 195.823 -187.169 253.5 -187.169C311.178 -187.169 357.933 -139.86 357.933 -81.5C357.933 -23.1402 311.178 24.169 253.5 24.169Z" fill="#E42336"/>
</svg>
