<?xml version="1.0" encoding="UTF-8"?>
<svg id="_Слой_2" data-name="Слой 2" xmlns="http://www.w3.org/2000/svg" viewBox="0 0 1133.98 1117.42">
  <defs>
    <style>
      .cls-1 {
        fill: #000;
        stroke-width: 0px;
      }
    </style>
  </defs>
  <g id="_Слой_4" data-name="Слой 4">
    <path class="cls-1" d="M572.76,831.76c64.94-172.41,130.42-344.62,195.76-516.88,21.91-57.77,43.84-115.53,67.17-177.03C746.7,91.88,655.97,45,568.87,0c17.6,27.03,35.17,58.16,56.95,85.99,14.66,18.74,15.67,34.15,6.68,55.12-20.4,47.58-38.11,96.3-58.05,144.09-2.94,7.05-11.82,16.19-18.34,16.51-100.5,4.88-201.06,8.61-304.26,12.64-9.18.36-17.27-6.07-18.95-15.1-9.46-50.89-18.04-101.17-29.27-150.85-5.72-25.31-.76-42.15,19.58-58.53,26.18-21.08,49.63-45.56,78.87-72.89-12,2.96-18.36,4.26-24.56,6.09C192.5,48.18,107.53,73.42,22.48,98.41c-5.6,1.64-11.56,2.04-17.43,2.76-2.07,3.42-2.97,4.9-5.04,8.32,2.42,6.77,6.09,13.28,7.57,20.25,10.58,49.84,17.46,100.74,31.84,149.43,25.5,86.33,12.92,172.72,7.28,259.29-6.48,99.47-13.97,198.88-20.72,298.34-1.37,20.24-.92,27.29,8.61,30.03l91.4,120.59,747,130,261-117-561.22-168.66ZM581.69,473.87c-23.36,87.83-95.7,119.07-187.57,58.81,64.63-20.26,125.37-39.31,187.57-58.81ZM315.38,527.71c-90.96,48.07-166.14,16.98-179.22-79.6,60.37,26.81,118.74,52.73,179.22,79.6Z"/>
  </g>
</svg>