<svg width="480" height="175" viewBox="0 0 480 175" fill="none" xmlns="http://www.w3.org/2000/svg">
<path d="M40.6342 175C71.4796 95.0365 149.11 38.3032 240.002 38.3032C330.895 38.3032 408.523 95.0365 439.368 175H480C447.523 73.4955 352.353 0 240 0C127.647 0 32.4793 73.4955 2.5481e-06 175H40.6318H40.6342Z" fill="#E42336"/>
<path d="M107.941 175C134.406 129.733 183.634 99.3089 239.998 99.3089C296.361 99.3089 345.591 129.736 372.056 175H403C374.178 114.126 312.027 72 240 72C167.973 72 105.822 114.126 77 175H107.944H107.941Z" fill="#E42336"/>
<path d="M170.427 175C188.798 158.092 213.21 147.785 239.998 147.785C266.785 147.785 291.197 158.092 309.568 175H335C312.637 146.947 278.389 129 240 129C201.611 129 167.361 146.947 145 175H170.43H170.427Z" fill="#E42336"/>
</svg>
