<?xml version="1.0" encoding="UTF-8"?>
<svg id="_Слой_2" data-name="Слой 2" xmlns="http://www.w3.org/2000/svg" viewBox="0 0 299.87 289.19">
  <defs>
    <style>
      .cls-1 {
        fill: #E42336;
        stroke-width: 0px;
      }
    </style>
  </defs>
  <g id="_Слой_3" data-name="Слой 3">
    <path class="cls-1" d="M299.87,0L85.09,41.18l-5.91,153.73c-10.06-3.38-21.55-4.16-33.23-1.64C15.48,199.82-4.67,226.28.94,252.36c5.61,26.08,34.86,41.91,65.33,35.35,28.89-6.22,48.5-30.32,45.68-55.03l6.9-162.33,145.21-27.13.95,140.97c-10.77-4.33-23.45-5.57-36.36-2.8-30.47,6.56-50.62,33.01-45.01,59.09,5.61,26.08,34.86,41.91,65.33,35.35,29.75-6.4,49.66-31.77,45.36-57.24L299.87,0Z"/>
  </g>
</svg>