<?xml version="1.0" encoding="UTF-8"?>
<svg id="_Слой_2" data-name="Слой 2" xmlns="http://www.w3.org/2000/svg" viewBox="0 0 225.98 258">
  <defs>
    <style>
      .cls-1 {
        fill: #000;
        stroke-width: 0px;
      }
    </style>
  </defs>
  <g id="_Слой_1-2" data-name="Слой 1">
    <path class="cls-1" d="M0,55.59c.4-1.02.57-1.46.97-2.47,1.55-.46,3.13-.84,4.56-1.54,21.72-10.63,43.41-21.33,65.12-31.99,1.58-.78,3.23-1.42,6.32-2.77-6.61,8.7-11.79,16.37-17.86,23.25-4.72,5.35-5.28,10.11-2.58,16.66,5.29,12.86,9.91,26.01,14.78,39.28.86,2.35,3.34,3.71,5.79,3.2,27.56-5.82,54.43-11.44,81.22-17.36,1.74-.38,3.71-3.25,4.17-5.29,3.17-13.78,5.7-27.72,9.01-41.47,1.46-6.06.48-10.16-4.32-14.54-7.13-6.5-13.28-14.07-19.25-20.54,25.48,8.12,52.02,16.58,78.05,24.88-3.46,17.63-6.71,34.19-9.95,50.76-10.3,52.59-20.66,105.17-30.81,157.79-.88,4.53-2.69,6.18-7.34,6.79-42.86,5.61-85.69,11.52-128.52,17.36-7.67,1.05-8.24.75-9.06-7.3-2.74-27.09-5.28-54.21-8.1-81.29-2.45-23.57-3.02-47.41-13.84-69.49-6.1-12.45-10.28-25.84-15.41-38.78-.72-1.81-2-3.39-2.96-5.11ZM103.95,153.74c-17.49-4.46-34.37-8.76-51.83-13.21,7.94,25.41,29.58,30.33,51.83,13.21ZM125.35,151.47c27.46,12.01,45.48.28,47.74-24.44-15.83,8.11-31.29,16.02-47.74,24.44Z"/>
  </g>
</svg>