<?xml version="1.0" encoding="UTF-8"?>
<svg id="_Слой_2" data-name="Слой 2" xmlns="http://www.w3.org/2000/svg" viewBox="0 0 199.73 275.17">
  <defs>
    <style>
      .cls-1 {
        fill: #000;
        stroke-width: 0px;
      }
    </style>
  </defs>
  <g id="_Слой_1-2" data-name="Слой 1">
    <path class="cls-1" d="M199.23,106.21c-15.49,15.98-31.01,31.93-46.46,47.94-8.93,9.25-17.67,18.68-26.69,27.83-2.69,2.72-3.88,5.34-3.45,9.27,1.27,11.73,2.19,23.5,3.01,35.27.14,2.03-.25,4.73-1.5,6.14-12.7,14.22-25.63,28.25-38.52,42.3-.05.05-.11.09-.19.13-.68.3-1.42-.31-1.36-1.05.9-10.11,1.74-20.05,2.69-29.97,2.3-24.02,4.57-48.05,7.12-72.05.36-3.39,1.68-6.61,3.8-9.27,11.96-14.99,24.22-29.74,36.36-44.58,1.27-1.55,2.48-3.14,3.89-4.95.31-.39.28-.95-.05-1.32-15.24-16.58-30.33-32.99-45.81-49.82-.4-.43-1.08-.44-1.49-.01-12.33,12.95-24.2,25.69-36.45,38.06-3.22,3.25-7.37,5.98-11.6,7.76-12.21,5.16-24.68,9.73-37.06,14.5-1.2.46-2.43.87-4.12,1.42-.96.32-1.74-.81-1.12-1.6C32.67,81.23,64.1,41.5,96.63.39c.43-.54,1.27-.51,1.65.07,1.35,2.05,2.54,3.69,3.64,5.11,26.66,34.69,61.3,62.44,92,93.61,1.59,1.62,3.42,3.01,5.19,4.46.79.65.84,1.83.14,2.56Z"/>
  </g>
</svg>